:FULLY-SPECIFIED
:DEGREES
1
root -2.83877 16.5096 -36.1855 3.1834 0.133854 -2.16468
lfemur -21.1443 5.82406 -9.31322
ltibia 44.4355
lfoot -21.7166 0.226092
ltoes -8.32621
rfemur -21.7616 -5.80021 13.621
rtibia 47.2507
rfoot -25.6406 1.6373
rtoes -6.88349
lowerback 7.53652 2.00431 -1.75798
upperback -3.60956 2.58572 1.17734
thorax -8.17811 1.39413 1.85367
lowerneck -2.71331 -3.85127 -6.53992
upperneck 6.08608 -5.20245 5.91324
head 2.82619 -2.57415 2.92951
lclavicle -7.08714e-15 9.54166e-15
lhumerus -26.7672 -4.27224 89.7989
lradius 24.9286
lwrist -30.1766
lhand -28.6657 30.4142
lfingers 7.12502
lthumb -2.02881 60.3843
rclavicle -7.08714e-15 9.54166e-15
rhumerus -32.3667 3.00047 -80.2496
rradius 30.6601
rwrist 2.64359
rhand -19.94 -27.7992
rfingers 7.12502
rthumb 6.39769 -57.6826
2
root -2.83539 16.509 -36.1835 3.2237 0.143825 -2.20436
lfemur -21.171 5.78469 -9.26926
ltibia 44.4523
lfoot -21.7315 0.165711
ltoes -8.08293
rfemur -21.7954 -5.80279 13.6579
rtibia 47.2419
rfoot -25.6328 1.62981
rtoes -6.94905
lowerback 7.49866 1.99097 -1.74427
upperback -3.64755 2.57152 1.19601
thorax -8.19662 1.38762 1.86841
lowerneck -2.71269 -3.84787 -6.56123
upperneck 6.15137 -5.19972 5.92024
head 2.84919 -2.57323 2.93626
lclavicle -3.04894e-14 -3.57812e-15
lhumerus -26.7976 -4.21041 89.7968
lradius 24.9256
lwrist -30.2195
lhand -28.7039 30.1433
lfingers 7.12502
lthumb -2.06569 60.1131
rclavicle -3.04894e-14 -3.57812e-15
rhumerus -32.3996 3.02731 -80.2616
rradius 30.6279
rwrist 2.70398
rhand -19.9879 -27.8745
rfingers 7.12502
rthumb 6.35152 -57.7592
3
root -2.83395 16.5074 -36.1796 3.2345 0.0984108 -2.27888
lfemur -21.1963 5.83866 -9.19736
ltibia 44.4786
lfoot -21.7359 0.29759
ltoes -8.52925
rfemur -21.7974 -5.72653 13.7381
rtibia 47.232
rfoot -25.6377 1.56876
rtoes -7.09569
lowerback 7.46285 2.00172 -1.7131
upperback -3.65393 2.59173 1.22056
thorax -8.18338 1.39663 1.87488
lowerneck -2.78693 -3.84815 -6.54758
upperneck 6.2223 -5.198 5.90326
head 2.88589 -2.57151 2.92713
lclavicle 1.40469e-15 -6.36111e-15
lhumerus -26.7939 -4.16995 89.7913
lradius 24.9339
lwrist -30.2424
lhand -28.6047 30.2359
lfingers 7.12502
lthumb -1.96991 60.2066
rclavicle 1.40469e-15 -6.36111e-15
rhumerus -32.3535 2.95273 -80.2435
rradius 30.5522
rwrist 2.71864
rhand -19.9442 -27.818
rfingers 7.12502
rthumb 6.39371 -57.7015
4
root -2.83199 16.5088 -36.1758 3.28806 0.12855 -2.29513
lfemur -21.2778 5.84464 -9.19584
ltibia 44.5013
lfoot -21.7298 0.335128
ltoes -8.63297
rfemur -21.8296 -5.7519 13.7549
rtibia 47.2151
rfoot -25.6418 1.57286
rtoes -6.96907
lowerback 7.37791 1.98235 -1.72172
upperback -3.69357 2.56616 1.22081
thorax -8.17576 1.3851 1.88581
lowerneck -2.69112 -3.83772 -6.52947
upperneck 6.19823 -5.18968 5.90533
head 2.85845 -2.5683 2.92596
lclavicle 5.28177e-15 -1.04362e-15
lhumerus -26.8442 -4.13784 89.7712
lradius 24.9541
lwrist -30.2652
lhand -28.5835 30.1857
lfingers 7.12502
lthumb -1.94945 60.1565
rclavicle 5.28177e-15 -1.04362e-15
rhumerus -32.425 2.88211 -80.2349
rradius 30.5577
rwrist 2.69924
rhand -19.8878 -27.5706
rfingers 7.12502
rthumb 6.44815 -57.4524
5
root -2.82947 16.5078 -36.1734 3.33607 0.149049 -2.30513
lfemur -21.3389 5.85996 -9.19348
ltibia 44.5337
lfoot -21.7656 0.296673
ltoes -8.56026
rfemur -21.8654 -5.77685 13.7633
rtibia 47.2061
rfoot -25.6299 1.56108
rtoes -7.01783
lowerback 7.32754 1.97635 -1.73243
upperback -3.7182 2.55747 1.21668
thorax -8.17283 1.38162 1.88991
lowerneck -2.70842 -3.84124 -6.48948
upperneck 6.22184 -5.19492 5.88401
head 2.86762 -2.57029 2.91068
lclavicle 2.22883e-14 2.6985e-14
lhumerus -26.8553 -4.09739 89.7542
lradius 24.9658
lwrist -30.314
lhand -28.5677 30.0462
lfingers 7.12502
lthumb -1.93419 60.0172
rclavicle 2.22883e-14 2.6985e-14
rhumerus -32.4624 2.82445 -80.2352
rradius 30.5882
rwrist 2.68202
rhand -19.8801 -27.6042
rfingers 7.12502
rthumb 6.45552 -57.4858
6
root -2.8277 16.5086 -36.1716 3.37051 0.181047 -2.35253
lfemur -21.3903 5.88428 -9.14733
ltibia 44.5593
lfoot -21.783 0.238469
ltoes -8.49969
rfemur -21.8851 -5.815 13.8163
rtibia 47.1946
rfoot -25.6325 1.53325
rtoes -7.07983
lowerback 7.2879 1.96665 -1.72144
upperback -3.74694 2.54747 1.23139
thorax -8.18044 1.37702 1.90154
lowerneck -2.62272 -3.81502 -6.49001
upperneck 6.17888 -5.16558 5.92283
head 2.83645 -2.55589 2.92642
lclavicle -3.9524e-16 8.59744e-15
lhumerus -26.885 -4.05976 89.7487
lradius 24.9782
lwrist -30.3501
lhand -28.5414 30.177
lfingers 7.12502
lthumb -1.90879 60.1482
rclavicle -3.9524e-16 8.59744e-15
rhumerus -32.4836 2.78304 -80.2323
rradius 30.5776
rwrist 2.64235
rhand -19.8702 -27.5955
rfingers 7.12502
rthumb 6.46513 -57.4768
7
root -2.82629 16.507 -36.1703 3.4023 0.213531 -2.41533
lfemur -21.4542 5.9082 -9.08302
ltibia 44.6
lfoot -21.8099 0.206531
ltoes -8.53116
rfemur -21.91 -5.85803 13.8871
rtibia 47.1972
rfoot -25.6546 1.54673
rtoes -7.01211
lowerback 7.25834 1.9637 -1.68444
upperback -3.76594 2.54875 1.24141
thorax -8.18246 1.37621 1.89179
lowerneck -2.58878 -3.83133 -6.48817
upperneck 6.117 -5.18956 5.95709
head 2.81215 -2.56727 2.93718
lclavicle 1.05791e-14 -6.90777e-15
lhumerus -26.9081 -4.10719 89.7567
lradius 25.0132
lwrist -30.2962
lhand -28.6146 30.0934
lfingers 7.12502
lthumb -1.97948 60.0639
rclavicle 1.05791e-14 -6.90777e-15
rhumerus -32.551 2.71211 -80.2274
rradius 30.6479
rwrist 2.61329
rhand -19.8515 -27.4487
rfingers 7.12502
rthumb 6.48318 -57.3294
8
root -2.82553 16.5074 -36.169 3.42396 0.261848 -2.42925
lfemur -21.5001 5.92768 -9.0709
ltibia 44.6316
lfoot -21.8388 0.149399
ltoes -8.51528
rfemur -21.9228 -5.88081 13.9026
rtibia 47.2001
rfoot -25.6524 1.53556
rtoes -6.97848
lowerback 7.24104 1.94876 -1.71989
upperback -3.76487 2.52627 1.25615
thorax -8.17255 1.36759 1.9311
lowerneck -2.62736 -3.83082 -6.51922
upperneck 6.10566 -5.18775 6.0019
head 2.81851 -2.56529 2.95808
lclavicle 9.74433e-15 -4.87022e-15
lhumerus -26.8962 -4.10523 89.7609
lradius 25.0508
lwrist -30.2668
lhand -28.6056 30.0082
lfingers 7.12502
lthumb -1.97077 59.9788
rclavicle 9.74433e-15 -4.87022e-15
rhumerus -32.5396 2.73302 -80.2291
rradius 30.6746
rwrist 2.55194
rhand -19.8827 -27.4668
rfingers 7.12502
rthumb 6.45306 -57.3485
9
root -2.8256 16.5061 -36.1688 3.44697 0.304728 -2.46249
lfemur -21.5544 5.92971 -9.03091
ltibia 44.6691
lfoot -21.8676 0.0911722
ltoes -8.41582
rfemur -21.9513 -5.87958 13.9436
rtibia 47.2206
rfoot -25.6337 1.51825
rtoes -6.82705
lowerback 7.25777 1.94003 -1.73835
upperback -3.79625 2.51382 1.27161
thorax -8.21727 1.36363 1.95866
lowerneck -2.5926 -3.82731 -6.54524
upperneck 6.07989 -5.1855 6.04281
head 2.80581 -2.5642 2.97763
lclavicle 3.45e-14 1.07841e-14
lhumerus -26.926 -4.1682 89.7859
lradius 25.0841
lwrist -30.1417
lhand -28.4707 30.2988
lfingers 7.12502
lthumb -1.84048 60.2706
rclavicle 3.45e-14 1.07841e-14
rhumerus -32.6239 2.74284 -80.2374
rradius 30.7419
rwrist 2.49791
rhand -20.4671 -26.9521
rfingers 7.12502
rthumb 5.88884 -56.8503
10
root -2.82539 16.5055 -36.169 3.47992 0.359864 -2.46819
lfemur -21.6192 5.90847 -9.02787
ltibia 44.6971
lfoot -21.8822 0.034317
ltoes -8.30909
rfemur -21.9863 -5.91946 13.9578
rtibia 47.2446
rfoot -25.6575 1.43205
rtoes -7.04734
lowerback 7.23704 1.93051 -1.77475
upperback -3.80793 2.4974 1.27023
thorax -8.21861 1.35774 1.98049
lowerneck -2.56799 -3.83384 -6.50813
upperneck 6.03252 -5.19545 6.03853
head 2.7842 -2.56871 2.96891
lclavicle 2.02139e-14 2.96686e-14
lhumerus -26.9147 -4.09973 89.7566
lradius 25.0984
lwrist -30.1647
lhand -28.4718 30.2244
lfingers 7.12502
lthumb -1.84156 60.1962
rclavicle 2.02139e-14 2.96686e-14
rhumerus -32.6425 2.71096 -80.2456
rradius 30.7569
rwrist 2.4932
rhand -20.5234 -26.9012
rfingers 7.12502
rthumb 5.83446 -56.8009
11
root -2.82608 16.504 -36.1699 3.49051 0.395155 -2.46735
lfemur -21.6659 5.87346 -9.02482
ltibia 44.7381
lfoot -21.885 0.0263614
ltoes -8.23319
rfemur -22.0146 -5.93751 13.964
rtibia 47.2788
rfoot -25.6579 1.38591
rtoes -7.15955
lowerback 7.28634 1.93037 -1.82523
upperback -3.82931 2.49109 1.26721
thorax -8.27249 1.35789 2.0048
lowerneck -2.56829 -3.84005 -6.50772
upperneck 6.01939 -5.20537 6.06933
head 2.78179 -2.57279 2.97905
lclavicle -1.91788e-14 -2.26615e-14
lhumerus -26.9305 -4.13584 89.7526
lradius 25.1395
lwrist -30.087
lhand -28.452 30.2333
lfingers 7.12502
lthumb -1.82247 60.2053
rclavicle -1.91788e-14 -2.26615e-14
rhumerus -32.6662 2.69065 -80.264
rradius 30.7772
rwrist 2.47647
rhand -20.5236 -26.9809
rfingers 7.12502
rthumb 5.8343 -56.8805
